<mxfile host="app.diagrams.net" agent="Mozilla/5.0" version="28.2.5">
  <diagram id="UniqueDiagramID_SimpleWebStack" name="WebStack-0">
    <mxGraphModel dx="1200" dy="700" grid="1" gridSize="10" guides="1" tooltips="1" connect="1" arrows="1" fold="1" page="1" pageScale="1" pageWidth="827" pageHeight="1169" math="0" shadow="0">
      <root>
        <mxCell id="0" />
        <mxCell id="1" parent="0" />

        <mxCell id="Client" value="User Browser / Client" style="shape=parallelogram;perimeter=parallelogramPerimeter;whiteSpace=wrap;html=1;fixedSize=1;" vertex="1" parent="1">
          <mxGeometry x="20" y="240" width="140" height="60" as="geometry" />
        </mxCell>

        <mxCell id="DNS" value="&lt;div&gt;DNS (A Record)&lt;/div&gt;&lt;div&gt;www.foobar.com -&gt; 8.8.8.8&lt;/div&gt;" style="rhombus;whiteSpace=wrap;html=1;fillColor=#dae8fc;strokeColor=#6c8ebf;" vertex="1" parent="1">
          <mxGeometry x="250" y="230" width="150" height="80" as="geometry" />
        </mxCell>

        <mxCell id="ServerSwimlane" value="SERVER (8.8.8.8) - Single Point of Failure (SPOF)" style="swimlane;startSize=30;fillColor=#d5e8d4;strokeColor=#82b366;" vertex="1" parent="1">
          <mxGeometry x="500" y="20" width="220" height="650" as="geometry" />
        </mxCell>

        <mxCell id="Nginx" value="NGINX (Web Server)" style="strokeWidth=2;html=1;shape=cylinder;whiteSpace=wrap;fillColor=#ffe6cc;strokeColor=#d79b00;" vertex="1" parent="ServerSwimlane">
          <mxGeometry x="60" y="70" width="100" height="90" as="geometry" />
        </mxCell>

        <mxCell id="AppServer" value="Application Server" style="strokeWidth=2;html=1;shape=box;whiteSpace=wrap;fillColor=#fff2cc;strokeColor=#d6b655;" vertex="1" parent="ServerSwimlane">
          <mxGeometry x="60" y="240" width="100" height="90" as="geometry" />
        </mxCell>

        <mxCell id="CodeBase" value="Application Files (Code Base)" style="strokeWidth=2;html=1;shape=note;whiteSpace=wrap;fillColor=#f8cecc;strokeColor=#b85450;" vertex="1" parent="ServerSwimlane">
          <mxGeometry x="60" y="390" width="100" height="90" as="geometry" />
        </mxCell>

        <mxCell id="MySQL" value="Database (MySQL)" style="strokeWidth=2;html=1;shape=datastore;whiteSpace=wrap;fillColor=#e1d5e7;strokeColor=#9673a6;" vertex="1" parent="ServerSwimlane">
          <mxGeometry x="60" y="540" width="100" height="90" as="geometry" />
        </mxCell>


        <mxCell id="Flow1_toDNS" value="1. Request www.foobar.com" style="endArrow=classic;html=1;rounded=0;exitX=1;exitY=0.5;entryX=0;entryY=0.5;" edge="1" parent="1" source="Client" target="DNS">
          <mxGeometry width="50" height="50" relative="1" as="geometry">
            <mxPoint x="160" y="270" as="sourcePoint" />
            <mxPoint x="250" y="270" as="targetPoint" />
          </mxGeometry>
        </mxCell>

        <mxCell id="Flow2_toServer" value="2. IP: 8.8.8.8" style="endArrow=classic;html=1;rounded=0;exitX=1;exitY=0.5;entryX=0;entryY=0.15;" edge="1" parent="1" source="DNS" target="Nginx">
          <mxGeometry width="50" height="50" relative="1" as="geometry">
            <mxPoint x="400" y="270" as="sourcePoint" />
            <mxPoint x="500" y="100" as="targetPoint" />
          </mxGeometry>
        </mxCell>

        <mxCell id="Flow3_toClient" value="8. HTML Response" style="endArrow=classic;html=1;rounded=0;exitX=0;exitY=0.15;entryX=1;entryY=0.5;dashed=1;" edge="1" parent="1" source="Nginx" target="Client">
          <mxGeometry width="50" height="50" relative="1" as="geometry">
            <mxPoint x="500" y="100" as="sourcePoint" />
            <mxPoint x="160" y="270" as="targetPoint" />
          </mxGeometry>
        </mxCell>

        <mxCell id="Flow4_NginxToApp" value="3. Pass Request" style="endArrow=classic;html=1;rounded=0;entryX=0.5;entryY=0;" edge="1" parent="ServerSwimlane" source="Nginx" target="AppServer">
          <mxGeometry relative="1" as="geometry">
            <mxPoint x="110" y="160" as="sourcePoint" />
            <mxPoint x="110" y="240" as="targetPoint" />
          </mxGeometry>
        </mxCell>

        <mxCell id="Flow5_AppToCode" value="4. Execute Code" style="endArrow=classic;html=1;rounded=0;entryX=0.5;entryY=0;" edge="1" parent="ServerSwimlane" source="AppServer" target="CodeBase">
          <mxGeometry relative="1" as="geometry">
            <mxPoint x="110" y="330" as="sourcePoint" />
            <mxPoint x="110" y="390" as="targetPoint" />
          </mxGeometry>
        </mxCell>

        <mxCell id="Flow6_CodeToSQL" value="5. Database Query" style="endArrow=classic;html=1;rounded=0;entryX=0.5;entryY=0;" edge="1" parent="ServerSwimlane" source="CodeBase" target="MySQL">
          <mxGeometry relative="1" as="geometry">
            <mxPoint x="110" y="480" as="sourcePoint" />
            <mxPoint x="110" y="540" as="targetPoint" />
          </mxGeometry>
        </mxCell>

        <mxCell id="Flow7_SQLToApp" value="6. Data Response" style="endArrow=classic;html=1;rounded=0;exitX=0.5;exitY=0;entryX=0.5;entryY=1;dashed=1;" edge="1" parent="ServerSwimlane" source="MySQL" target="AppServer">
          <mxGeometry relative="1" as="geometry">
            <mxPoint x="110" y="540" as="sourcePoint" />
            <mxPoint x="110" y="330" as="targetPoint" />
            <Array as="points">
              <mxPoint x="180" y="540" />
              <mxPoint x="180" y="330" />
            </Array>
          </mxGeometry>
        </mxCell>

        <mxCell id="Flow8_AppToNginx" value="7. Rendered Content" style="endArrow=classic;html=1;rounded=0;exitX=0.5;exitY=1;entryX=0.5;entryY=1;dashed=1;" edge="1" parent="ServerSwimlane" source="AppServer" target="Nginx">
          <mxGeometry relative="1" as="geometry">
            <mxPoint x="110" y="330" as="sourcePoint" />
            <mxPoint x="110" y="160" as="targetPoint" />
            <Array as="points">
              <mxPoint x="180" y="285" />
              <mxPoint x="180" y="125" />
            </Array>
          </mxGeometry>
        </mxCell>
        
      </root>
    </mxGraphModel>
  </diagram>
</mxfile>
